<?xml version="1.0" encoding="UTF-8" standalone="no"?>
<!-- Created with Inkscape (http://www.inkscape.org/) -->

<svg
   width="24.008091mm"
   height="17.734217mm"
   viewBox="0 0 24.008091 17.734217"
   version="1.1"
   id="svg1"
   xmlns="http://www.w3.org/2000/svg"
   xmlns:svg="http://www.w3.org/2000/svg">
  <defs
     id="defs1" />
  <g
     id="layer1"
     transform="translate(-1.0885906,-0.11687958)">
    <path
       style="fill:#000000;stroke-width:0.0641619"
       d="m 7.9961557,0.11687958 c -3.193488,0.21848 -5.020055,3.40777462 -6.249225,6.08369862 -1.241526,2.702826 1.566152,4.8455598 1.445144,7.4123018 -0.05894,1.250185 -4.345761,3.70723 -0.510009,4.168138 2.821595,0.339045 4.731425,-2.956736 6.949902,-2.792968 2.6257083,0.19383 3.9125813,0.733696 6.5218093,1.922961 1.738373,0.792336 7.461435,2.104476 4.644794,-1.173281 -1.199928,-1.396368 -1.695713,-1.0877 0.320446,-1.515907 2.593371,-0.550797 3.594372,-3.253315 3.938455,-5.7059628 0.383006,-2.730108 -2.101675,-5.242414 -4.752322,-5.250535 -2.564899,-0.0079 -3.492663,0.234457 -6.599636,-0.755117 C 11.716,1.8765469 10.158754,0.18415998 7.9961557,0.11687958 Z"
       id="path1" />
  </g>
</svg>
