<?xml version="1.0" encoding="UTF-8" standalone="no"?>
<!-- Created with Inkscape (http://www.inkscape.org/) -->

<svg
   width="23.718647mm"
   height="17.127214mm"
   viewBox="0 0 23.718647 17.127215"
   version="1.1"
   id="svg1"
   xmlns="http://www.w3.org/2000/svg"
   xmlns:svg="http://www.w3.org/2000/svg">
  <defs
     id="defs1" />
  <g
     id="layer1"
     transform="translate(-1.2521839,-0.4147566)">
    <path
       style="display:inline;fill:#000000;stroke-width:0.0598343"
       d="M 5.8013399,0.90763134 C 3.2312202,1.4187673 1.6454834,4.6303743 1.2739083,7.1016943 0.94957938,9.2588013 4.3666002,11.181922 4.2012471,13.00431 c -0.1561953,1.721498 0.8782646,6.199034 3.1933307,3.784855 1.2762864,-1.330928 0.5702065,-3.611324 3.5068202,-2.951501 1.924979,0.432523 4.654713,-1.668556 4.63473,1.410533 -0.02026,3.120178 3.708524,3.259071 3.011565,-0.838574 -0.456428,-2.683485 4.020536,-1.092568 5.509232,-3.271654 1.626264,-2.3804447 0.877889,-4.8725967 -0.650246,-6.9190657 -1.759351,-2.35611 -5.819561,1.233129 -7.495674,-0.477193 -1.822071,-1.859253 -4.283881,-3.36406096 -6.9094847,-3.24882196 -1.03414,0.04539 -2.4040119,-0.391825 -3.2001804,0.414743 z"
       id="path1-8" />
  </g>
</svg>
